<?xml version="1.0" encoding="utf-8"?>
<!-- Generator: Adobe Illustrator 22.0.1, SVG Export Plug-In . SVG Version: 6.00 Build 0)  -->
<svg version="1.1" id="Layer_1" xmlns="http://www.w3.org/2000/svg" xmlns:xlink="http://www.w3.org/1999/xlink" x="0px" y="0px"
	 viewBox="0 0 66.9 66.9" style="enable-background:new 0 0 66.9 66.9;" xml:space="preserve">
<style type="text/css">
	.st0{fill:#9b1f2a;}
	.st1{fill:#FFFFFF;}
</style>
<circle class="st0" cx="33.4" cy="33.4" r="33.4"/>
<g>
	<g>
		<path class="st1" d="M46,28.1c0-1.6-0.5-2.8-1.5-3.9c-1.9-1.9-3.7-3.9-5.7-5.8c-0.7-0.7-1.6-1.1-2.4-1.7c-3.7,0-7.5,0-11.2,0
			c-0.1,0-0.2,0.1-0.3,0.1c-2.3,0.5-4,2.5-4,4.9c0,7.8,0,15.7,0,23.5c0,2.5,2,4.6,4.4,4.9c0.9,0.1,1.9,0.1,2.9,0.1
			c4.3,0,8.6,0,12.9,0c2.9,0,5-2.3,5-5.2C46,39.3,45.9,33.7,46,28.1z M40.6,47.6c-4.7,0-9.4,0-14.1,0c-2.2,0-3.1-0.9-3.1-3.1
			c0-3.7,0-7.3,0-11c0,0,0,0,0,0c0-3.7,0-7.5,0-11.2c0-1.9,1-2.9,2.8-2.9c2.7,0,5.4,0,8.1,0c1.2,0,1.6,0.3,1.6,1.6
			c0,1.2,0,2.3,0,3.5c0,2.6,0.1,2.7,2.6,2.6c1.1,0,2.1,0,3.2,0c1.4,0,1.8,0.4,1.8,1.9c0,5.3,0,10.5,0,15.8
			C43.5,46.6,42.4,47.6,40.6,47.6z M27.2,32.1c2.1,0,4.1,0,6.2,0c0,0,0,0,0,0c2.1,0,4.1,0,6.2,0c0.9,0,1.4-0.5,1.4-1.3
			c0-0.8-0.5-1.3-1.4-1.3c-4.1,0-8.3,0-12.4,0c-0.8,0-1.3,0.6-1.3,1.3C25.8,31.7,26.3,32.1,27.2,32.1z M39.5,39.9
			c-4.1,0-8.2,0-12.3,0c-0.9,0-1.4,0.5-1.4,1.3c0,0.8,0.5,1.3,1.4,1.3c2.1,0,4.1,0,6.2,0c0,0,0,0,0,0c2.1,0,4.2,0,6.2,0
			c0.9,0,1.5-0.7,1.3-1.5C40.8,40.3,40.3,39.9,39.5,39.9z M27.1,34.7c-0.9,0-1.4,0.6-1.3,1.3c0,0.8,0.5,1.2,1.4,1.2
			c1.6,0,3.3,0,4.9,0c1.6,0,3.3,0,4.9,0c0.9,0,1.4-0.5,1.4-1.2c0-0.7-0.5-1.3-1.4-1.3C33.7,34.7,30.4,34.7,27.1,34.7z"/>
	</g>
</g>
</svg>
