<svg id="OBJECTS" xmlns="http://www.w3.org/2000/svg" viewBox="0 0 62.9 62.9"><defs><style>.cls-1{fill:#9b1f2a;}</style></defs><path class="cls-1" d="M61.15,41.8a31.48,31.48,0,0,0,0-20.7c0-.09-.06-.19-.1-.28a31.45,31.45,0,0,0-59.2,0c0,.09-.07.19-.1.28a31.48,31.48,0,0,0,0,20.7c0,.09.06.19.1.28a31.45,31.45,0,0,0,59.2,0c0-.09.07-.19.1-.28ZM31.45,58.39c-1.2,0-3.13-2.16-4.74-7a49.67,49.67,0,0,1-1.86-7.94h13.2a48.86,48.86,0,0,1-1.86,7.94c-1.61,4.85-3.54,7-4.74,7ZM24.3,38.93C24.09,36.53,24,34,24,31.45s.12-5.07.33-7.48H38.6c.21,2.41.33,4.91.33,7.48s-.12,5.08-.33,7.48ZM4.51,31.45a27.2,27.2,0,0,1,1-7.48H19.78c-.21,2.46-.32,5-.32,7.48s.11,5,.32,7.48H5.56a27.2,27.2,0,0,1-1-7.48ZM31.45,4.51c1.2,0,3.13,2.17,4.74,7a48.86,48.86,0,0,1,1.86,7.94H24.85a48.86,48.86,0,0,1,1.86-7.94c1.61-4.84,3.54-7,4.74-7ZM43.12,24H57.33a26.92,26.92,0,0,1,0,15H43.12c.21-2.45.32-5,.32-7.48s-.11-5-.32-7.48Zm12.45-4.51h-13c-.8-5.53-2.18-10.49-4.11-14a27,27,0,0,1,17.08,14Zm-31.16-14c-1.93,3.53-3.31,8.49-4.11,14h-13a27.06,27.06,0,0,1,17.08-14Zm-17.08,38h13c.8,5.53,2.18,10.49,4.11,14a27.06,27.06,0,0,1-17.08-14Zm31.16,14c1.93-3.53,3.31-8.49,4.11-14h13a27,27,0,0,1-17.08,14Zm0,0"/></svg>